<?xml version="1.0" standalone="no"?>
<!DOCTYPE svg PUBLIC "-//W3C//DTD SVG 20010904//EN"
 "http://www.w3.org/TR/2001/REC-SVG-20010904/DTD/svg10.dtd">
<svg version="1.0" xmlns="http://www.w3.org/2000/svg"
 width="399.000000pt" height="551.000000pt" viewBox="0 0 399.000000 551.000000"
 preserveAspectRatio="xMidYMid meet">

<g transform="translate(0.000000,551.000000) scale(0.100000,-0.100000)"
fill="#000000" stroke="none">
<path d="M3020 5359 c-150 -25 -392 -101 -525 -164 -104 -49 -161 -89 -70 -49
231 102 552 194 677 194 77 0 141 -33 202 -102 43 -50 85 -132 73 -144 -3 -3
-29 -1 -58 5 -61 11 -74 5 -61 -30 14 -37 4 -49 -38 -49 -36 0 -38 2 -44 38
-8 56 -57 117 -118 149 -45 23 -65 28 -133 28 -113 0 -214 -43 -320 -137 l-34
-29 -48 17 c-26 9 -74 17 -105 17 -52 0 -58 2 -68 26 -30 73 -125 141 -197
141 -59 0 -87 -13 -148 -71 -53 -50 -53 -50 -80 -33 -34 22 -159 31 -209 14
-21 -6 -58 -13 -84 -15 -95 -5 -190 -76 -207 -155 -6 -26 -8 -28 -38 -19 -89
25 -140 5 -244 -96 -132 -130 -304 -256 -478 -351 -116 -63 -121 -67 -144 -99
-26 -39 -27 -85 -1 -118 23 -29 25 -43 7 -54 -29 -18 -67 -82 -77 -130 -9 -42
-8 -64 4 -114 9 -34 15 -63 14 -64 -2 -1 -25 -13 -51 -28 -112 -61 -204 -158
-257 -272 -32 -68 -40 -197 -16 -260 19 -48 81 -111 121 -121 15 -4 24 -12 21
-18 -57 -129 -60 -140 -61 -251 0 -86 4 -117 18 -142 9 -18 17 -45 18 -60 0
-15 6 -44 13 -63 11 -30 10 -40 -5 -75 -23 -50 -24 -126 -3 -168 10 -18 32
-50 51 -72 33 -38 34 -43 27 -90 -4 -27 -7 -71 -6 -97 2 -27 -1 -48 -7 -48 -5
0 -16 -16 -26 -36 -24 -50 -12 -106 31 -149 31 -32 33 -37 28 -80 -5 -30 -2
-59 9 -87 8 -24 18 -65 21 -92 12 -100 100 -236 152 -236 17 0 23 -8 28 -39 8
-52 60 -125 132 -186 33 -27 68 -61 79 -74 l18 -24 -33 19 c-18 10 -42 31 -53
46 -26 35 -37 35 -37 1 0 -75 56 -206 114 -271 l34 -37 -14 -90 c-7 -49 -14
-93 -14 -97 0 -4 31 6 69 21 151 63 331 115 534 155 71 14 132 28 136 31 8 5
3 45 -20 150 -6 28 -38 131 -71 230 l-60 180 4 130 c4 157 13 179 107 272 142
142 268 216 464 275 l100 30 21 -22 c11 -11 58 -32 104 -46 51 -16 96 -37 116
-55 43 -37 77 -118 84 -195 5 -68 -7 -116 -41 -156 l-22 -27 -105 69 c-123 82
-177 102 -274 102 -54 1 -84 -5 -126 -24 -67 -30 -126 -93 -137 -145 -11 -54
-7 -452 6 -550 13 -102 46 -203 73 -225 40 -35 130 -15 198 45 19 16 85 74
145 128 130 115 433 354 525 414 98 64 257 145 285 145 30 0 70 -59 143 -212
71 -146 83 -175 89 -212 l5 -33 -113 -6 c-63 -4 -159 -13 -214 -21 -55 -9
-145 -20 -200 -26 -122 -14 -203 -34 -268 -67 -27 -13 -144 -88 -261 -167
-116 -78 -240 -158 -276 -178 -73 -40 -191 -79 -325 -105 -49 -9 -96 -21 -102
-26 -20 -15 -15 -33 11 -45 41 -18 272 -35 391 -28 223 14 373 28 483 47 150
25 157 24 89 -13 -74 -40 -176 -148 -212 -224 -41 -85 -48 -209 -12 -187 8 4
48 49 90 100 289 349 699 645 1119 808 54 21 96 40 94 43 -8 8 -183 -50 -301
-101 -162 -68 -338 -171 -492 -286 -132 -99 -351 -308 -439 -418 -52 -67 -67
-69 -38 -6 47 102 132 196 243 267 39 25 42 30 28 43 -13 13 -32 13 -168 -2
-379 -41 -849 -50 -849 -16 0 4 28 13 63 20 242 49 318 84 632 294 115 77 232
150 260 162 90 39 105 42 635 103 l145 17 3 31 c6 59 -84 264 -185 423 -34 53
-35 53 -74 48 -43 -6 -198 -88 -314 -166 -113 -76 -419 -319 -555 -441 -177
-158 -231 -182 -269 -119 -46 76 -71 258 -71 519 0 200 8 247 50 289 51 51
116 75 200 74 45 -1 92 -8 114 -17 33 -14 161 -93 240 -148 l28 -20 24 28 c48
59 59 94 59 185 0 76 -4 93 -33 151 -40 81 -76 110 -181 144 -45 14 -81 30
-81 35 0 12 -17 11 230 15 118 2 230 6 249 9 33 6 33 6 26 -22 -4 -15 -9 -62
-12 -103 -4 -70 -2 -78 25 -121 23 -35 50 -59 112 -95 48 -29 102 -71 130
-102 37 -42 53 -52 68 -48 21 7 139 134 191 206 36 50 65 112 76 161 4 18 21
62 37 98 17 36 59 136 94 221 49 118 69 157 86 164 133 55 180 85 221 145 l32
46 1 180 c0 99 3 215 7 258 6 74 8 81 46 122 80 86 87 134 45 280 -32 110 -33
134 -5 209 24 68 29 156 7 156 -7 0 -25 17 -39 38 -41 57 -89 85 -158 90 -32
2 -59 6 -59 7 0 2 10 29 22 60 16 43 25 54 37 49 61 -26 91 -9 91 52 0 18 7
61 15 96 9 42 11 75 6 100 -10 41 -48 108 -62 108 -5 0 -9 10 -9 23 0 45 -13
51 -109 52 -58 0 -94 4 -102 13 -10 10 0 12 53 12 72 0 105 9 131 35 58 57
-51 183 -140 160 -18 -4 -32 0 -47 13 -14 13 -42 21 -90 25 -40 4 -80 14 -95
24 l-26 18 25 3 c37 6 50 21 50 58 0 32 1 33 38 27 90 -12 150 -53 179 -120
14 -35 23 -42 23 -20 0 22 -58 102 -84 116 -16 9 -27 26 -31 49 -10 56 -42
110 -96 164 -81 81 -170 108 -289 87z m-802 -128 c47 -24 85 -65 109 -116 l18
-40 56 3 c32 2 79 -3 109 -12 30 -9 58 -16 64 -16 6 0 31 19 56 41 154 137
364 157 469 44 45 -49 59 -97 42 -148 -12 -35 -53 -87 -69 -87 -4 0 -6 27 -4
61 3 37 0 69 -8 84 -24 44 -129 84 -175 66 -18 -7 -17 -9 12 -24 54 -28 104
-114 89 -154 -6 -14 -9 -14 -29 4 -43 40 -64 44 -190 41 -67 -2 -137 1 -155 5
-33 9 -33 9 -30 -24 2 -25 12 -39 38 -57 46 -31 103 -26 194 16 81 38 81 36
30 -102 -20 -54 -33 -100 -30 -103 3 -3 29 13 58 35 124 95 180 95 301 0 l38
-30 53 58 c70 77 131 108 214 109 59 0 66 -2 93 -33 61 -68 24 -104 -115 -112
-51 -3 -91 -9 -90 -15 0 -5 18 -20 40 -33 33 -19 51 -22 119 -20 l80 3 3 -32
c2 -24 -3 -39 -23 -58 -23 -24 -30 -25 -73 -18 -26 4 -90 8 -142 8 -85 0 -100
-3 -141 -27 -66 -39 -93 -101 -70 -161 11 -28 69 -97 81 -97 4 0 13 14 19 32
28 79 111 144 197 154 89 11 122 -41 102 -156 -10 -55 -27 -95 -106 -242 l-41
-78 -36 47 c-46 60 -81 83 -127 83 -42 0 -61 -20 -73 -77 -9 -43 -45 -48 -42
-5 2 25 -1 27 -40 30 -48 4 -49 5 -28 55 25 60 19 115 -16 167 -61 90 -171
153 -379 219 -69 22 -157 51 -196 65 -39 14 -127 34 -195 46 -83 14 -133 27
-152 41 -35 25 -45 18 -23 -16 21 -32 88 -81 132 -97 19 -7 34 -15 34 -18 0
-4 -64 -39 -143 -79 -134 -68 -148 -73 -223 -78 -95 -7 -119 3 -181 70 -43 47
-73 100 -113 200 -25 64 -39 70 -75 31 -38 -41 -41 -62 -11 -93 32 -33 33 -41
3 -41 -21 0 -114 -28 -157 -47 -8 -4 45 -12 118 -19 126 -11 136 -14 164 -40
32 -31 50 -66 68 -129 22 -79 29 -146 19 -172 -14 -37 -253 -278 -257 -259 -2
8 12 47 32 86 58 119 57 224 -3 292 l-28 31 -30 -21 c-16 -12 -105 -57 -198
-102 l-167 -80 7 -37 c8 -43 47 -124 68 -141 58 -48 138 -1 157 94 7 31 9 77
5 105 -9 61 4 64 45 7 60 -82 63 -156 10 -239 -45 -70 -158 -159 -202 -159 -7
0 -19 -4 -27 -9 -18 -12 1 -70 34 -101 20 -19 25 -34 26 -74 1 -28 4 -62 8
-76 7 -24 8 -24 38 20 17 25 75 90 127 145 96 99 96 99 96 151 l0 51 121 119
c66 65 135 144 153 174 40 67 56 69 144 12 119 -77 211 -80 362 -11 126 56
202 63 278 25 62 -31 105 -86 127 -161 18 -65 18 -65 0 -65 -8 0 -17 12 -21
28 -17 79 -69 149 -127 171 -44 17 -108 13 -173 -10 -32 -12 -86 -31 -119 -42
l-60 -22 40 -7 c22 -4 54 -7 72 -7 41 -1 190 -48 199 -63 5 -8 -19 -9 -92 -4
-54 3 -112 9 -129 12 -65 14 -7 -13 65 -30 145 -33 234 -73 299 -132 l39 -35
53 21 c108 41 180 93 209 151 71 137 -54 344 -250 414 -76 28 -155 34 -303 25
-78 -5 -143 -7 -146 -5 -2 3 9 9 25 15 56 21 116 53 144 76 l28 24 94 -26
c195 -54 274 -78 309 -95 84 -41 145 -152 156 -281 l6 -67 25 19 c16 13 40 20
68 20 46 0 67 -14 33 -23 -28 -7 -16 -25 24 -35 32 -8 32 -9 38 -83 5 -63 13
-86 52 -159 26 -47 47 -89 47 -94 0 -4 -11 -1 -24 8 -36 23 -106 46 -142 46
-37 0 -77 -13 -162 -51 -35 -16 -67 -29 -71 -29 -21 0 -94 -65 -106 -94 -15
-36 -7 -86 20 -121 14 -19 14 -18 15 13 0 18 7 46 15 62 16 31 32 42 21 15 -9
-25 15 -64 43 -69 14 -3 52 -2 84 2 67 10 72 1 32 -53 -25 -32 -28 -33 -108
-36 -73 -4 -88 -8 -135 -38 -54 -35 -136 -127 -126 -142 3 -5 27 -7 52 -3 167
22 364 -73 433 -209 24 -46 35 -131 22 -166 -9 -23 -11 -22 -41 31 -36 63
-112 138 -163 161 -93 43 -236 75 -372 83 -149 9 -265 32 -306 60 -118 80
-165 -55 -63 -184 113 -142 472 -196 689 -103 125 54 159 44 211 -58 35 -67
40 -87 46 -170 3 -55 21 -154 42 -238 33 -132 35 -149 25 -204 -12 -73 -48
-153 -93 -212 -64 -84 -152 -177 -167 -177 -9 0 -28 16 -44 35 -26 33 -146
125 -163 125 -16 1 -62 45 -83 80 -25 42 -28 115 -6 186 21 70 20 77 -12 70
-16 -3 -144 -10 -285 -16 l-258 -10 -43 43 c-113 114 -274 132 -447 51 -91
-42 -105 -41 -172 15 -72 59 -133 136 -178 223 -48 91 -64 142 -85 264 -10 57
-22 93 -32 102 -20 15 -76 16 -123 2 -46 -14 -156 -15 -206 -1 -81 22 -181
158 -204 276 -11 54 -9 67 10 125 37 110 129 209 245 264 98 47 122 51 178 26
50 -22 77 -52 77 -85 0 -12 -14 -43 -32 -71 l-32 -49 -6 32 c-17 75 -100 141
-162 128 -76 -17 -159 -91 -187 -168 -15 -40 -14 -172 3 -210 38 -89 163 -122
211 -54 14 20 14 23 -2 34 -9 7 -25 13 -36 13 -59 0 -117 61 -117 123 0 73
122 197 193 197 29 0 67 -24 67 -42 0 -4 -23 -8 -51 -8 -52 0 -94 -15 -84 -29
2 -5 34 -15 70 -22 80 -16 85 -34 11 -44 -90 -11 -162 -76 -137 -124 19 -35
49 -35 258 -5 41 6 53 28 53 98 0 48 -3 56 -19 56 -29 0 -71 -56 -71 -95 0
-30 -3 -33 -42 -43 -87 -21 -132 -24 -153 -9 -47 36 36 99 148 112 l57 6 45
77 c37 62 45 83 41 111 -7 45 -52 90 -141 143 -166 98 -262 184 -306 276 -32
65 -23 115 36 197 30 42 61 105 85 172 21 58 45 110 52 114 15 10 41 -12 69
-58 11 -18 25 -33 29 -33 5 0 15 19 22 43 18 64 83 188 122 233 72 84 197 125
354 116 109 -6 122 1 122 63 0 24 7 72 16 107 39 151 89 198 213 198 45 0 83
-6 106 -17 l35 -17 43 41 c86 84 151 102 225 64z m-611 -151 c-19 -39 -35 -94
-46 -161 l-16 -102 -90 7 c-163 11 -298 -38 -377 -137 -39 -49 -98 -160 -112
-209 l-6 -23 -24 26 c-34 39 -62 52 -86 39 -25 -13 -33 -29 -71 -137 -17 -48
-48 -112 -68 -141 -49 -70 -80 -132 -81 -159 0 -33 37 -113 76 -160 55 -67
103 -109 181 -161 73 -47 87 -62 57 -62 -35 0 -191 -83 -232 -123 -52 -50 -99
-115 -127 -175 l-20 -44 0 134 c0 122 -2 136 -24 175 -32 56 -77 77 -149 70
-53 -6 -54 -5 -37 13 44 48 166 86 201 62 21 -14 34 -51 45 -128 14 -103 24
-126 51 -122 11 2 30 16 42 31 18 24 21 43 21 125 0 90 -2 100 -30 145 -38 61
-105 107 -156 107 -21 0 -41 5 -44 11 -4 6 -9 37 -12 69 -8 83 11 140 63 197
l43 46 -29 34 c-17 19 -30 45 -30 60 0 34 49 79 135 123 168 86 395 252 514
375 36 36 73 71 84 76 23 13 89 15 138 6 36 -7 37 -7 57 40 25 58 52 85 112
112 75 34 81 30 47 -39z m1406 -11 c36 -28 51 -82 38 -139 -5 -25 -6 -49 -2
-53 22 -22 104 47 117 99 7 28 16 30 35 8 22 -27 66 -44 113 -44 47 0 96 -14
96 -27 0 -5 -21 -18 -47 -30 -50 -23 -79 -47 -126 -102 l-28 -34 -42 30 c-109
78 -165 83 -253 24 -33 -22 -60 -38 -61 -37 -2 2 8 34 22 72 14 38 25 77 25
86 0 28 17 29 41 3 71 -75 97 42 28 127 l-30 38 24 0 c13 0 36 -9 50 -21z
m-264 -110 l96 -1 -55 -25 c-86 -41 -180 -32 -194 19 -4 18 -1 20 26 14 17 -3
74 -6 127 -7z m-1158 -316 c41 -128 142 -252 221 -274 86 -23 155 -8 301 65
72 37 143 76 157 88 28 23 32 18 -58 69 -30 17 -52 32 -50 35 3 2 57 -5 122
-16 144 -24 529 -152 614 -204 78 -47 149 -119 162 -164 11 -40 0 -97 -28
-144 -22 -37 -32 -35 -32 5 0 40 -25 128 -50 177 -28 55 -88 108 -148 130 -30
12 -130 39 -220 62 -159 39 -167 40 -191 24 -24 -16 -136 -71 -258 -127 -29
-13 -53 -27 -53 -30 0 -3 44 0 97 7 53 8 164 15 247 15 131 2 159 -1 210 -19
140 -51 230 -137 270 -259 19 -58 11 -111 -24 -156 -25 -32 -106 -84 -168
-107 l-49 -19 -24 25 c-33 35 -82 64 -153 90 l-61 22 53 7 c54 8 62 15 38 34
-8 6 -19 25 -26 40 -20 50 19 94 49 57 9 -11 10 -20 1 -35 -17 -33 4 -65 40
-57 25 5 30 1 44 -34 9 -22 19 -40 23 -40 5 0 19 -3 32 -7 24 -6 24 -5 17 43
-22 162 -161 274 -305 245 -30 -6 -91 -29 -135 -51 -142 -70 -229 -70 -334 1
-68 46 -103 61 -126 55 -19 -5 -23 1 -35 52 -37 161 -83 226 -170 242 -29 6
-74 10 -100 10 -60 1 -34 18 39 27 28 3 53 9 55 13 2 4 -11 22 -30 41 -19 19
-35 37 -35 40 0 10 41 59 50 59 5 0 14 -17 21 -37z m2063 -70 c25 -49 27 -88
12 -157 -9 -37 -16 -82 -16 -101 0 -41 -8 -47 -39 -31 -22 12 -24 20 -25 89
-1 59 -5 79 -20 96 -71 79 -232 25 -314 -103 l-25 -40 -23 28 c-18 20 -24 39
-24 73 0 41 5 51 39 83 49 47 91 54 251 45 l117 -7 19 25 c24 33 30 33 48 0z
m-2143 -353 c34 -63 22 -173 -26 -245 -14 -20 -28 -58 -31 -83 -6 -44 -15 -55
-118 -159 -61 -62 -115 -113 -120 -113 -5 0 -18 7 -28 17 -22 20 -24 63 -3 63
27 0 118 64 168 119 54 58 86 120 87 167 0 46 -26 113 -62 157 -16 21 -26 42
-22 47 24 22 111 70 123 67 7 -1 22 -18 32 -37z m-211 -136 c0 -85 -17 -134
-54 -154 -46 -24 -87 12 -121 109 -14 40 -14 42 8 50 12 5 51 23 87 40 36 17
68 31 73 31 4 0 7 -34 7 -76z m2371 18 c36 -22 85 -80 75 -89 -3 -3 -25 0 -50
6 -117 29 -185 -7 -210 -114 l-8 -30 -18 35 c-32 59 -23 113 32 192 29 42 112
42 179 0z m-1191 -1 c0 -6 -5 -13 -11 -17 -7 -4 -9 -22 -6 -46 5 -34 3 -39
-11 -33 -10 4 -57 17 -107 30 l-90 23 40 18 c72 31 185 46 185 25z m843 -21
c39 -33 122 -153 131 -187 3 -13 9 -33 12 -45 4 -13 -13 6 -36 41 -53 77 -111
117 -186 127 -30 3 -54 10 -54 15 0 6 7 25 14 44 13 31 19 35 50 35 25 0 45
-9 69 -30z m-735 -53 c2 -12 -3 -17 -17 -17 -12 0 -21 6 -21 13 0 31 32 34 38
4z m1118 -28 c24 -6 44 -15 44 -19 0 -5 -12 -18 -27 -30 -29 -23 -209 -130
-218 -130 -9 0 -5 62 7 102 23 79 86 104 194 77z m-371 -29 c44 -27 97 -100
125 -170 29 -75 39 -255 16 -285 -15 -19 -15 -18 -16 20 0 68 -52 215 -75 215
-13 0 -39 -61 -50 -118 -7 -33 -25 -35 -25 -3 0 11 -27 72 -60 137 -53 105
-60 126 -60 178 l0 59 55 -6 c31 -3 71 -15 90 -27z m431 -71 c-21 -73 -32 -91
-114 -190 -57 -69 -131 -139 -147 -139 -4 0 -5 10 -2 23 3 12 2 61 -1 110 -4
48 -4 87 0 87 4 0 27 13 50 29 24 16 78 48 121 72 43 24 83 52 89 62 19 36 21
7 4 -54z m-3193 37 c38 -15 94 -76 113 -122 18 -44 18 -156 -1 -200 -18 -44
-49 -44 -53 1 -13 151 -40 219 -91 230 -62 13 -175 -41 -250 -119 -28 -29 -31
-36 -18 -41 8 -4 24 -2 34 3 10 5 41 15 70 21 45 11 56 10 88 -5 20 -9 42 -29
50 -45 22 -41 39 -171 30 -226 l-7 -48 -18 41 c-24 56 -72 94 -118 94 -86 -1
-139 -103 -97 -184 28 -54 -16 -60 -75 -10 -47 40 -71 80 -80 136 -23 147 55
301 212 418 90 66 149 82 211 56z m880 -173 c5 -24 -5 -39 -77 -113 -45 -47
-92 -100 -105 -117 -31 -45 -41 -41 -41 13 0 45 2 47 103 144 56 55 105 99
108 100 4 0 9 -12 12 -27z m2251 -155 c-42 -83 -106 -124 -186 -119 -30 2 -21
18 50 88 37 38 86 90 107 117 l40 49 3 -51 c2 -33 -3 -63 -14 -84z m-283 44
c15 -47 23 -100 27 -178 4 -105 3 -112 -23 -165 -16 -29 -31 -79 -34 -109 l-6
-54 -32 49 c-30 47 -36 72 -11 47 22 -22 28 -12 28 43 0 30 4 55 9 55 5 0 16
21 25 47 20 58 7 112 -36 148 -26 22 -28 29 -23 62 6 33 18 80 31 121 7 24 22
3 45 -66z m-214 27 c59 -29 93 -71 93 -117 -1 -50 -54 -256 -75 -288 -20 -32
-41 -40 -60 -24 -21 18 -19 27 10 34 39 10 57 46 53 108 -3 46 -6 53 -25 56
-32 5 -66 -36 -82 -97 -10 -42 -17 -51 -35 -51 -20 0 -96 44 -96 56 0 3 11 20
24 37 46 60 76 138 76 198 0 30 -5 60 -10 65 -15 15 -134 -11 -191 -42 -48
-27 -81 -62 -94 -103 -5 -15 -10 -20 -17 -13 -15 15 9 78 37 96 14 9 71 36
127 61 122 52 193 59 265 24z m-137 -57 l0 -29 -72 1 c-50 0 -84 -5 -107 -17
-19 -9 -36 -15 -39 -13 -7 8 61 46 103 57 22 6 51 14 65 19 43 14 50 11 50
-18z m710 -59 c12 -60 12 -64 -13 -105 -33 -56 -64 -84 -167 -149 -47 -29
-100 -64 -119 -78 -35 -26 -64 -79 -57 -103 12 -39 15 -68 7 -68 -14 0 -30 87
-25 136 2 24 18 72 34 108 22 48 30 79 30 122 0 45 3 55 12 46 18 -18 94 -14
137 7 47 25 97 80 118 133 19 47 24 40 43 -49z m-2850 22 c0 -2 -19 -13 -43
-23 -62 -27 -112 -75 -141 -134 -31 -62 -32 -87 -6 -138 23 -45 50 -67 103
-81 42 -11 48 -24 15 -33 -42 -11 -75 -6 -102 15 -42 33 -56 71 -56 149 0 109
29 163 119 221 38 25 111 41 111 24z m2120 -15 c16 -8 17 -15 8 -44 l-11 -34
-84 -7 c-92 -8 -107 -2 -101 36 6 42 138 76 188 49z m320 -62 c23 -31 42 -116
23 -105 -6 4 -14 22 -17 41 -4 20 -18 44 -31 55 -26 20 -35 54 -12 45 8 -3 24
-19 37 -36z m-2893 -45 c13 -15 30 -58 40 -94 10 -42 21 -65 28 -62 8 2 14
-15 18 -49 9 -72 70 -192 129 -250 l47 -46 -25 -48 c-31 -58 -70 -110 -139
-184 -28 -30 -56 -64 -62 -75 -11 -19 -12 -19 -30 -2 -28 24 -60 21 -79 -8 -9
-14 -24 -70 -33 -125 -9 -55 -18 -100 -21 -99 -14 1 -73 107 -77 139 -11 78
53 177 138 215 l41 19 -6 51 c-11 97 30 247 85 310 35 40 37 55 5 55 -18 0
-29 10 -43 38 -28 53 -78 85 -124 78 -31 -5 -37 -3 -47 20 -21 45 -15 89 18
124 28 29 35 32 73 27 30 -4 48 -14 64 -34z m540 12 c9 -24 1 -26 -60 -13 -67
14 -65 28 4 28 35 0 51 -4 56 -15z m2350 -61 c6 -54 -4 -55 -16 -2 -5 18 -11
44 -16 58 -7 23 -6 24 10 9 10 -10 20 -39 22 -65z m-40 30 c5 -15 -21 -53 -31
-43 -7 7 6 59 15 59 6 0 12 -7 16 -16z m-117 -59 c0 -32 -6 -51 -20 -65 -59
-59 -70 26 -12 93 24 27 32 20 32 -28z m-2102 -14 c6 -38 -7 -71 -27 -71 -26
0 -33 38 -13 72 19 32 35 32 40 -1z m2246 -63 c4 -32 4 -58 0 -58 -3 0 -22 10
-41 21 -19 12 -36 19 -39 16 -3 -3 10 -27 29 -54 99 -139 155 -297 143 -407
-6 -58 -75 -282 -114 -367 -22 -49 -69 -161 -84 -199 -8 -22 -14 -7 -44 105
-45 171 -59 255 -57 340 3 127 14 198 31 211 26 19 19 130 -13 232 -15 46 -24
86 -22 89 3 2 14 0 24 -5 41 -22 84 18 104 98 9 36 18 49 38 57 31 11 35 4 45
-79z m-424 33 c0 -11 -104 -66 -150 -79 -19 -6 -49 -15 -67 -20 -25 -8 -31 -8
-26 3 6 16 63 62 107 87 32 18 136 25 136 9z m92 -30 c25 -16 55 -32 67 -36
11 -3 21 -13 21 -21 0 -8 4 -22 10 -32 15 -26 50 -151 50 -176 -1 -15 -7 -9
-25 24 -48 92 -149 166 -244 177 -57 7 -64 15 -23 32 15 6 41 22 57 36 17 13
32 24 36 25 3 0 26 -13 51 -29z m641 -80 c-15 -89 -29 -125 -60 -153 -20 -18
-101 -57 -119 -58 -14 0 -36 107 -28 138 4 15 44 47 112 92 59 38 107 68 108
67 1 -1 -5 -40 -13 -86z m-3210 39 c42 -49 44 -70 11 -94 -60 -41 -122 -115
-158 -186 -20 -40 -36 -81 -36 -91 0 -34 -17 -20 -24 19 -18 112 1 234 51 320
30 51 46 61 95 62 28 0 42 -7 61 -30z m2534 -73 c59 -30 111 -89 147 -167 33
-70 35 -113 3 -55 -62 115 -156 184 -299 219 -104 26 -95 36 27 32 52 -2 83
-10 122 -29z m-2467 -23 c0 -3 -8 -18 -19 -32 -51 -73 -86 -210 -71 -278 13
-53 13 -51 -14 -58 -14 -3 -45 -22 -70 -41 -43 -33 -46 -33 -56 -15 -30 56 -1
182 65 286 40 62 165 167 165 138z m1723 -49 c55 -31 147 -52 272 -60 117 -8
300 -39 359 -62 51 -21 116 -60 116 -72 0 -5 -17 -11 -38 -13 -21 -3 -64 -17
-96 -32 -75 -34 -187 -50 -306 -42 -155 10 -267 52 -334 126 -43 48 -56 77
-56 129 0 60 17 65 83 26z m1414 -157 c5 -57 6 -116 1 -133 -11 -44 -85 -114
-153 -147 -33 -15 -65 -28 -71 -28 -8 0 -5 23 8 68 15 52 18 89 15 168 -3 90
-2 101 13 97 23 -6 124 34 145 57 10 11 21 20 25 20 4 0 11 -46 17 -102z
m-2752 -22 c55 0 128 4 162 9 60 7 62 7 66 -16 3 -13 13 -67 22 -119 23 -127
48 -200 98 -285 47 -81 154 -190 219 -224 l44 -24 93 47 c89 44 97 46 180 46
74 0 94 -4 146 -29 57 -27 114 -75 103 -86 -2 -3 -41 -16 -84 -29 -200 -60
-327 -136 -475 -286 -101 -102 -114 -138 -113 -315 l1 -130 52 -145 c43 -120
101 -325 101 -358 0 -5 -37 -14 -82 -21 -175 -28 -417 -96 -552 -155 -70 -31
-65 -30 -61 -8 18 97 50 260 69 362 31 155 53 303 67 440 12 120 31 1148 22
1198 -3 19 -15 40 -28 48 -21 14 -30 13 -90 -5 -37 -12 -75 -21 -85 -21 -25 0
-36 -20 -19 -31 8 -5 44 -9 82 -9 37 0 67 -4 67 -9 0 -19 -69 -66 -164 -112
l-98 -47 58 -12 c32 -7 80 -10 107 -6 l50 5 -19 -20 c-11 -12 -32 -28 -47 -36
l-28 -14 33 -22 c33 -22 87 -108 88 -137 0 -8 -12 1 -27 20 -86 111 -165 160
-274 170 -44 4 -82 10 -85 13 -10 10 18 52 85 122 70 74 147 184 158 223 5 20
9 22 32 15 14 -4 71 -8 126 -7z m55 -102 c5 -6 5 -38 2 -509 -3 -410 -29 -806
-71 -1040 -41 -234 -55 -305 -62 -305 -23 0 -113 164 -125 225 l-7 39 62 -54
c33 -29 64 -50 67 -47 17 17 -25 80 -105 157 -98 96 -126 143 -118 202 5 34 3
38 -11 32 -32 -14 -64 -6 -94 22 -32 31 -71 100 -82 148 l-7 29 36 -31 c52
-46 104 -42 163 11 37 34 29 46 -24 34 -34 -8 -54 -7 -82 2 -94 33 -129 90
-118 192 5 51 3 58 -14 64 -11 3 -29 18 -40 32 -34 43 -23 141 14 127 7 -3 40
19 74 49 89 77 171 117 241 117 63 0 133 -27 153 -59 19 -31 28 -26 28 14 0
46 -21 87 -53 104 -23 12 -40 12 -87 0 -9 -3 -16 5 -18 21 -5 44 -24 84 -56
118 -29 31 -29 32 -8 32 71 0 208 -114 262 -218 l29 -57 -3 61 c-4 74 -28 127
-72 162 l-32 26 24 18 c29 23 68 77 61 85 -3 3 -26 -3 -51 -12 -33 -13 -58
-15 -93 -10 l-47 7 93 48 c106 55 143 85 139 115 -3 18 -9 20 -75 18 -41 -1
-73 2 -73 7 0 6 12 10 28 11 15 0 43 7 62 14 31 12 77 12 90 -1z m-480 -250
c0 -15 6 -24 16 -24 12 0 7 -10 -18 -38 -39 -43 -82 -142 -98 -224 -12 -61
-36 -83 -27 -25 10 60 38 232 46 279 4 25 16 59 26 74 l18 28 18 -23 c11 -13
19 -34 19 -47z m133 -62 c26 -24 43 -60 51 -107 8 -50 1 -60 -47 -68 -53 -8
-118 -43 -189 -100 -37 -30 -58 -42 -54 -31 4 11 13 48 20 84 16 84 68 191
108 225 35 30 76 29 111 -3z m185 -165 c15 -17 37 -68 29 -67 -1 0 -33 16 -71
34 l-68 34 27 15 c34 17 56 13 83 -16z m-253 -627 l60 -5 -27 -18 c-44 -30
-97 -25 -130 12 -37 42 -35 55 5 34 17 -10 59 -20 92 -23z"/>
</g>
</svg>
